<?xml version="1.0" encoding="utf-8"?>
<!-- Generator: Adobe Illustrator 23.0.2, SVG Export Plug-In . SVG Version: 6.00 Build 0)  -->
<svg version="1.1" id="Calque_1" xmlns="http://www.w3.org/2000/svg" xmlns:xlink="http://www.w3.org/1999/xlink" x="0px" y="0px"
	 viewBox="0 0 320 320" style="enable-background:new 0 0 320 320;" xml:space="preserve">
<style type="text/css">
	.st0{enable-background:new    ;}
	.st1{fill:#FFFFFF;}
	.st2{fill:none;stroke:#FFFFFF;stroke-miterlimit:10;}
	.st3{fill:none;stroke:#FFFFFF;stroke-width:3;}
</style>
<g id="Groupe_55" transform="translate(-320 -380)">
	<g id="Groupe_54">
		<g class="st0">
			<path class="st1" d="M415.3,538.2c0,3.8-0.1,8.5-0.3,14.2c-0.1,3.5-1.5,6.5-4.3,9.3c-2.8,2.7-5.9,4.1-9.3,4.3
				c-5.5,0.3-11.4,0.5-18,0.5h-0.2c-5,0-9.8-0.2-14.3-0.5c-3.6-0.3-6.6-1.7-9.3-4.4c-2.7-2.7-4.1-5.8-4.4-9.3
				c-0.2-3.6-0.3-7.7-0.3-12.5v-0.6c0-6.7,0.1-10.7,0.2-11.8c0.5-4,1.8-7.4,4.2-10.1c2.6-3,5.8-4.5,9.6-4.8
				c5.7-0.4,10.5-0.6,14.3-0.6c6.6,0,12.7,0.2,18.2,0.6c3.6,0.3,6.7,1.7,9.3,4.3s4,5.8,4.3,9.3c0.1,0.5,0.1,1.5,0.2,3h-5v-1.1
				c0-5.9-4.6-10.8-10.5-10.8c-3.2-0.1-8.7-0.1-16.7-0.1h-0.6c-7.9,0-11.3,0-10.4-0.1c-4.3,0.3-7.4,1.4-9.2,3.5
				c-2,2.1-3.1,4.6-3.1,7.6v22.2c0,2.9,1.1,5.4,3.1,7.5c2,2.1,4.5,3.2,7.4,3.3c3.2,0.1,7.4,0.1,12.8,0.1c8,0,13.5,0,16.7-0.1
				c2.9-0.1,5.4-1.2,7.4-3.3c2-2.1,3.1-4.6,3.1-7.5v-7.1h-33.8v-5.1c3.6-0.2,10.8-0.2,21.2-0.1L415.3,538.2z"/>
			<path class="st1" d="M481.3,516.5h-26.9v49.6h-4.6v-49.6h-27.6v-4.6h59V516.5z"/>
			<path class="st1" d="M597.7,566.2h-5v-38.1c0-2.9-1.1-5.4-3.2-7.5c-2-2.1-4.5-3.2-7.4-3.3c-3.2-0.1-7.8-0.1-13.6-0.1h-0.8
				c-7.1,0-10.4,0-9.8-0.1c-7.8,0.7-11.8,5.2-11.8,10.9v2.8l0.1,8.4v9.9l-0.1,17h-5v-38.1c0-2.9-1.1-5.4-3.2-7.5
				c-2-2.1-4.5-3.2-7.4-3.3c-3.2-0.1-7.8-0.1-13.7-0.1h-0.7c-7.1,0-10.4,0-9.8-0.1c-7.8,0.7-11.8,5.2-11.8,10.9v38.1h-4.9
				c-0.1-1.4-0.1-7.2-0.1-17.1l0.1-14.1v-22.8h4.6v4.9c2.8-2.8,5.9-4.2,9.3-4.5c5.3-0.4,9.7-0.6,13.3-0.6c4.5,0,9.6,0.2,15.3,0.6
				c4.8,0.3,8.6,2.7,11.5,7.2c2.8-4.5,6.6-6.9,11.4-7.2c5.7-0.4,10.2-0.6,13.3-0.6c4.7,0,9.8,0.2,15.3,0.6c3.6,0.3,6.6,1.7,9.3,4.4
				c2.8,2.7,4.2,5.8,4.4,9.1c0.2,3.4,0.3,7.8,0.3,13.2L597.7,566.2z"/>
			<path class="st1" d="M354.7,580.8v-1.9h250.6v1.9H354.7z"/>
		</g>
		<g class="st0">
			<path class="st1" d="M432,621.1h-1.7v-10.4c0-1.5-1.3-2.8-2.8-2.8l-4.4,0h-0.8c-1.3,0-1.9,0-2,0.1c-1.5,0.2-2.5,1.3-2.5,2.8v10.4
				h-1.9v-10.4c0-1.5-1.2-2.8-2.8-2.8l-4.5,0h-0.8c-1.2,0-1.8,0-1.9,0.1c-1.4,0.1-2.6,1.2-2.6,2.7v10.5h-1.7v-14.8h1.7v0.8
				c0.7-0.5,1.4-0.9,2.2-0.9c1.5-0.1,2.5-0.1,3-0.1h0.1c2.8,0,4.3,0,4.5,0c1.7,0.2,3,0.9,3.7,2c0.6-0.9,1.5-1.5,2.7-1.8
				c0.6-0.1,1.8-0.2,3.4-0.2h0.1c2.1,0,3.7,0,5.1,0.1c1,0.1,1.8,0.5,2.6,1.3c0.8,0.8,1.2,1.6,1.2,2.6c0,1,0.1,2.2,0.1,3.6L432,621.1
				z"/>
			<path class="st1" d="M452.8,620.3c0,0.2,0,0.5,0,0.8H451v-0.9c-0.8,0.6-1.9,0.9-3.4,1c0.4,0-0.8,0-3.7,0h-4
				c-1.4,0-2.5-0.4-3.5-1.3c-0.9-0.9-1.4-1.9-1.4-3.3c0-1.2,0.4-2.3,1.3-3.2c0.9-0.9,2-1.3,3.2-1.4c1.1,0,2.5,0,4.2,0h0.1
				c2.9,0,5.3,0,7.1,0v-1.4c0-1.5-1.2-2.9-2.8-2.9h-8.1c-1.3,0-2.5,1.1-2.8,2.4h-1.7l0-0.2c0-1,0.4-1.8,1.2-2.6s1.6-1.2,2.6-1.3
				c1.3-0.1,2.7-0.1,4.2-0.1h0c2,0,3.7,0,5,0.1c1,0.1,1.9,0.5,2.7,1.3c0.8,0.8,1.2,1.6,1.2,2.6V620.3z M451,613.7h-4.7
				c-0.4,0-2.6,0-6.5,0c-1.8,0-3,1.1-3,2.8c0,0.8,0.3,1.5,0.9,2.1c0.6,0.5,1.3,0.8,2.2,0.8c0.9,0,2.2,0,4.1,0h3.3c0.2,0,0.2,0,0,0
				c2.5-0.1,3.8-1.2,3.8-3.2V613.7z"/>
			<path class="st1" d="M471.1,621.1h-1.7v-10.4c0-1.5-1.2-2.8-2.8-2.8l-4.5,0h-0.8c-1.2,0-1.8,0-1.9,0.1c-1.4,0.1-2.6,1.2-2.6,2.7
				v10.5h-1.7v-14.8h1.7v0.8c0.7-0.5,1.4-0.9,2.2-0.9c1.5-0.1,2.5-0.1,3.1-0.1h0.1c2.1,0,3.7,0,5.1,0.1c1,0.1,1.8,0.5,2.6,1.3
				s1.2,1.6,1.2,2.6c0,0.9,0.1,2.2,0.1,3.6L471.1,621.1z"/>
			<path class="st1" d="M491.9,620.3c0,0.2,0,0.5,0,0.8h-1.7v-0.9c-0.8,0.6-1.9,0.9-3.4,1c0.4,0-0.8,0-3.7,0h-4
				c-1.4,0-2.5-0.4-3.5-1.3c-0.9-0.9-1.4-1.9-1.4-3.3c0-1.2,0.4-2.3,1.3-3.2c0.9-0.9,2-1.3,3.2-1.4c1.1,0,2.5,0,4.2,0h0.1
				c2.9,0,5.3,0,7.1,0v-1.4c0-1.5-1.2-2.9-2.8-2.9h-8.1c-1.3,0-2.5,1.1-2.8,2.4h-1.7l0-0.2c0-1,0.4-1.8,1.2-2.6s1.6-1.2,2.6-1.3
				c1.3-0.1,2.7-0.1,4.2-0.1h0c2,0,3.7,0,5,0.1c1,0.1,1.9,0.5,2.7,1.3c0.8,0.8,1.2,1.6,1.2,2.6V620.3z M490.2,613.7h-4.7
				c-0.4,0-2.6,0-6.5,0c-1.8,0-3,1.1-3,2.8c0,0.8,0.3,1.5,0.9,2.1c0.6,0.5,1.3,0.8,2.2,0.8c0.9,0,2.2,0,4.1,0h3.3c0.2,0,0.2,0,0,0
				c2.5-0.1,3.8-1.2,3.8-3.2V613.7z"/>
			<path class="st1" d="M513.5,607.7c-0.6,0.1-1.1,0.3-1.5,0.7c0.4,0.7,0.6,2,0.6,4v7.6c0,1.6,0,2.6-0.1,3.1c-0.3,2.2-1.9,3.9-4,3.9
				h-12v-1.7h11.7c1.5,0,2.7-1.2,2.7-2.8c0-0.2,0-0.4,0-0.7c0-0.1,0-0.6,0-1.6c-0.7,0.5-1.4,0.8-2.2,0.9c-1.5,0.1-3.2,0.1-5,0.1h0
				c-2.1,0-3.7,0-5.1-0.1c-1-0.1-1.8-0.5-2.6-1.2s-1.2-1.6-1.2-2.6c-0.1-1.3-0.1-2.5-0.1-3.5v-0.1c0-1.8,0-2.9,0.1-3.3
				c0.1-1.1,0.5-2.1,1.2-2.8c0.7-0.8,1.6-1.3,2.7-1.4c1.4-0.1,3.1-0.1,5-0.1h0.1c1.9,0,3.6,0,5.1,0.1c0.8,0,1.5,0.4,2.3,1
				c0.8-0.6,1.6-1,2.5-1.1V607.7z M510.9,610.7c0-1.5-1.2-2.8-2.8-2.8l-4.4,0c-0.5,0-2,0-4.5,0c-1.5,0-2.8,1.3-2.8,2.8v5.9
				c0,1.5,1.2,2.8,2.8,2.8l4.5,0c-0.3,0,1.2,0,4.4,0c1.5,0,2.8-1.3,2.8-2.8V610.7z"/>
			<path class="st1" d="M533.6,613.6v0.9h-16.2v2.1c0,1.5,1.2,2.8,2.8,2.8l4.4,0c-0.3,0,1.2,0,4.5,0c1.5,0,2.8-1.3,2.8-2.8v0h1.7
				c0,0,0,0.3,0,0.8c0,1-0.5,1.8-1.2,2.6s-1.6,1.2-2.6,1.2c-1.3,0.1-3,0.1-5,0.1h0c-2.1,0-3.7,0-5.1-0.1c-1-0.1-1.8-0.5-2.6-1.2
				s-1.2-1.6-1.2-2.6c0-1-0.1-2.1-0.1-3.4v-0.2c0-2,0-3.1,0-3.3c0.1-1.1,0.5-2.1,1.2-2.8c0.7-0.8,1.6-1.3,2.7-1.4
				c1.4-0.1,3.1-0.1,5-0.1h0.1c2.1,0,3.7,0,5.1,0.1c1,0.1,1.8,0.5,2.6,1.3s1.2,1.6,1.2,2.6C533.6,611,533.7,612.2,533.6,613.6
				L533.6,613.6z M531.9,612.7v-2.1c0-1.5-1.2-2.8-2.8-2.8l-4.5,0c-0.5,0-1.9,0-4.4,0c-1.5,0-2.8,1.3-2.8,2.8v2.1H531.9z"/>
			<path class="st1" d="M540,607.7c-0.3,0-0.5,0.1-0.9,0.2c-1.1,0.5-1.7,1.3-1.7,2.5c0,0.6,0,1.2,0,1.7c0,0.3,0,0.5,0,0.6v8.4h-1.7
				l0-14.8h1.7v0.6c0.8-0.6,1.5-0.9,2.2-0.9h1.9v1.7H540z"/>
		</g>
		<g id="Rectangle_4" transform="translate(320 380)">
			<path class="st2" d="M160,0L160,0c88.4,0,160,71.6,160,160l0,0c0,88.4-71.6,160-160,160l0,0C71.6,320,0,248.4,0,160l0,0
				C0,71.6,71.6,0,160,0z"/>
			<path class="st3" d="M160,1.5L160,1.5c87.5,0,158.5,71,158.5,158.5l0,0c0,87.5-71,158.5-158.5,158.5l0,0
				c-87.5,0-158.5-71-158.5-158.5l0,0C1.5,72.5,72.5,1.5,160,1.5z"/>
		</g>
	</g>
</g>
</svg>
